<svg xmlns="http://www.w3.org/2000/svg" xmlns:xlink="http://www.w3.org/1999/xlink" viewBox="0 0 812.86 900.54"
  width="36px" height="36px">
  <defs>
    <style>
      .cls-1 {
        fill: url(#gradient);
      }

      .cls-2 {
        fill: none;
        stroke: #fff;
        stroke-linecap: round;
        stroke-miterlimit: 10;
        stroke-width: 60px;
      }
    </style>
    <linearGradient id="gradient" x1="499.33" y1="949.65" x2="499.33" y2="49.1" gradientUnits="userSpaceOnUse">
      <stop offset="0" stop-color="#037700" />
      <stop offset="1" stop-color="#6aff73" />
    </linearGradient>
  </defs>
  <path class="cls-1"
    d="M131.63,151.66c68.68-2.3,214.22-17.28,346.28-96.87a39.79,39.79,0,0,1,40.94,0c133.32,79.87,280.66,94.7,346.65,97.09a40,40,0,0,1,38.43,37.61c8.1,137.89,6.41,617-390.92,757.91a40,40,0,0,1-28.9-.87C142,802,104.76,518,92.93,193.13A40.11,40.11,0,0,1,131.63,151.66Z"
    transform="translate(-92.9 -49.1)" />
  <path class="cls-2" d="M377.45,281.27V388.6s5.92,110.91,122.7,111.14S621.09,610.9,621.09,610.9V718.23"
    transform="translate(-92.9 -49.1)" />
  <path class="cls-2" d="M621.09,281.27V388.6s-5.8,110.91-122.58,111.14S377.45,610.9,377.45,610.9V718.23"
    transform="translate(-92.9 -49.1)" />
</svg>